<svg width="13" height="13" viewBox="0 0 13 13" fill="none" xmlns="http://www.w3.org/2000/svg">
<path fill-rule="evenodd" clip-rule="evenodd" d="M9.6932 1.81714C10.7184 1.81714 11.5536 2.63093 11.5879 3.6478L11.589 3.71297V8.20677C11.589 9.232 10.7752 10.0672 9.75514 10.1015L9.68976 10.1026L9.25349 10.0981L8.76046 10.0965L8.60708 10.0973L8.3569 10.1013L8.21526 10.1065L8.10354 10.2017L7.93728 10.3508L7.72362 10.5484L7.3972 10.8573L7.01528 11.2248C6.70586 11.5246 6.21944 11.529 5.90436 11.2433L5.86589 11.2061L5.54636 10.8781L5.3572 10.6882L5.23065 10.5636L5.11491 10.4519L4.96184 10.3088L4.87367 10.2297L4.80098 10.1674L4.74182 10.1193L4.11522 10.1157L3.20181 10.1181C2.17659 10.1228 1.33775 9.31276 1.29876 8.29607L1.29736 8.2309V3.71297C1.29736 2.68775 2.11116 1.85259 3.12802 1.81824L3.1932 1.81714H9.6932ZM9.6932 2.90047H3.1932C2.76049 2.90047 2.40679 3.23872 2.38208 3.66523L2.3807 3.71297V8.22228L2.3823 8.27371C2.40796 8.68431 2.73832 9.01168 3.14914 9.03361L3.19689 9.03478L3.70815 9.03291L4.30581 9.03261L4.70764 9.03483L4.83066 9.03751L4.93476 9.04351L4.96567 9.04696L5.00509 9.0535L5.05776 9.06677C5.16092 9.09772 5.27054 9.15918 5.40466 9.26153L5.45614 9.30185L5.55959 9.38821L5.67326 9.48927L5.77249 9.58125L5.93683 9.73873L6.05775 9.85731L6.31659 10.1163L6.4562 10.2587L6.9232 9.81249L7.17632 9.57704L7.26426 9.49732L7.41947 9.361L7.51935 9.27777L7.60654 9.2097L7.65827 9.17223L7.70535 9.14073L7.74815 9.11489L7.78709 9.09442L7.82205 9.07919L7.86168 9.06556L7.90518 9.05396L7.92879 9.04886L7.98052 9.03998L8.03935 9.03271L8.10658 9.02689L8.1835 9.02235L8.2714 9.01893L8.48532 9.0148L8.89953 9.01308L9.20551 9.01439L9.67945 9.01917L9.74094 9.01789C10.1517 8.99409 10.4805 8.66522 10.5043 8.25451L10.5057 8.20677V3.71297C10.5057 3.28027 10.1674 2.92656 9.74094 2.90185L9.6932 2.90047ZM7.9895 5.41667C8.36344 5.41667 8.66658 5.71981 8.66658 6.09375C8.66658 6.4677 8.36344 6.77084 7.9895 6.77084C7.61555 6.77084 7.31241 6.4677 7.31241 6.09375C7.31241 5.71981 7.61555 5.41667 7.9895 5.41667ZM5.01033 5.41667C5.38427 5.41667 5.68741 5.71981 5.68741 6.09375C5.68741 6.4677 5.38427 6.77084 5.01033 6.77084C4.63639 6.77084 4.33325 6.4677 4.33325 6.09375C4.33325 5.71981 4.63639 5.41667 5.01033 5.41667Z" fill="#999999"/>
</svg>
