<svg width="20" height="20" viewBox="0 0 20 20" fill="none" xmlns="http://www.w3.org/2000/svg">
<path fill-rule="evenodd" clip-rule="evenodd" d="M9.9412 2.55884C10.4902 2.55884 11.0073 2.57839 11.4934 2.6183L11.734 2.63996L12.0327 2.67247L12.1789 2.69082L12.4653 2.73172L12.6747 2.7661V2.7661L12.8795 2.80369L13.1456 2.8588C15.8474 3.45669 17.2727 4.9742 17.7097 7.64179L17.733 7.79118L17.7687 8.05771C17.8201 8.48225 17.8489 8.93379 17.8561 9.41315L17.8579 9.65514L17.8555 9.98704L17.8481 10.3098L17.8426 10.4678V10.4678L17.8358 10.6235L17.8183 10.9282C17.5809 14.4777 16.2423 16.1642 12.9409 16.6073L12.7542 16.6304L12.6134 16.6404L12.57 16.6457L12.545 16.6518L12.4359 16.7238L12.2015 16.8897L11.8966 17.1138L11.4197 17.473L10.7149 18.0137C10.2742 18.3542 9.66477 18.3604 9.21875 18.0379L9.15312 17.9871L8.79284 17.6908L8.46944 17.4296L8.18316 17.2035L7.93422 17.0128L7.78791 16.9045L7.60323 16.7742L7.50636 16.7108L7.4612 16.6834L7.34663 16.6629L7.18544 16.638L6.99887 16.6147C3.8452 16.2061 2.46137 14.6794 2.11501 11.5088L2.09905 11.3541L2.07404 11.065C2.06409 10.9345 2.0557 10.8015 2.0488 10.6659L2.03958 10.4605L2.02991 10.1451L2.02692 9.98401L2.02454 9.65514C2.02454 9.1665 2.04597 8.7058 2.08986 8.27223L2.11368 8.05771L2.14945 7.79118C2.54993 5.08091 3.93343 3.52499 6.58799 2.89297L6.73678 2.8588L7.00287 2.80369L7.20772 2.7661V2.7661L7.41714 2.73172L7.7035 2.69082L7.84975 2.67247L8.14845 2.63996C8.70365 2.58545 9.3007 2.55884 9.9412 2.55884ZM10.2572 4.22758L9.9412 4.2255L9.54777 4.22875V4.22875L9.16959 4.23861L9.02253 4.24445L8.73556 4.25943L8.59561 4.26859L8.32273 4.29034C8.12155 4.30837 7.92817 4.3303 7.74235 4.35631L7.55905 4.38368L7.3224 4.42447C5.04462 4.84888 4.03032 5.99364 3.76491 8.24979L3.75016 8.38379L3.72861 8.62218L3.71972 8.74431L3.70563 8.99451L3.69477 9.3185V9.3185L3.6912 9.65514L3.69317 9.96994L3.69566 10.1228V10.1228L3.69919 10.2727L3.70945 10.5637L3.72411 10.8431L3.73315 10.9785L3.75476 11.241L3.76737 11.368L3.79633 11.614C4.08463 13.8175 5.01676 14.6768 7.20572 14.961L7.33341 14.9767L7.49093 14.9982L7.6733 15.0279L7.84393 15.0607L7.91341 15.0765C7.98359 15.0939 8.06159 15.1233 8.14988 15.1661L8.21806 15.2008L8.37824 15.2925L8.49658 15.3675L8.55947 15.4093L8.69311 15.5015L8.83779 15.6058L8.9942 15.7225L9.25225 15.9216L9.54047 16.1507L9.95995 16.4918L10.2953 16.234L10.8956 15.78L11.079 15.6445L11.3886 15.4226L11.5752 15.2962L11.68 15.2297L11.7907 15.1653V15.1653L11.8103 15.1548L11.8811 15.1205L11.912 15.1077C12.1229 15.0265 12.2729 14.9962 12.4745 14.9795L12.5895 14.9716L12.7111 14.9565C15.0687 14.6434 15.9544 13.653 16.1481 10.9969L16.1576 10.8556L16.1726 10.5735L16.1784 10.428L16.1881 10.0511V10.0511L16.1892 9.97348L16.1912 9.65514L16.1899 9.45163V9.45163L16.1861 9.25269L16.1768 8.99451L16.1584 8.683V8.683L16.1538 8.62218L16.1322 8.38379C15.896 6.08391 14.921 4.90308 12.6925 4.45027L12.56 4.42447L12.3234 4.38368C12.1426 4.35493 11.9543 4.33032 11.7583 4.30967L11.5597 4.29034L11.2868 4.26859L11.1468 4.25943L10.8599 4.24445L10.7128 4.23861V4.23861L10.5634 4.23386L10.2572 4.22758ZM12.2917 8.75005C12.867 8.75005 13.3333 9.21642 13.3333 9.79172C13.3333 10.367 12.867 10.8334 12.2917 10.8334C11.7164 10.8334 11.25 10.367 11.25 9.79172C11.25 9.21642 11.7164 8.75005 12.2917 8.75005ZM7.70833 8.75005C8.28362 8.75005 8.74999 9.21642 8.74999 9.79172C8.74999 10.367 8.28362 10.8334 7.70833 10.8334C7.13303 10.8334 6.66666 10.367 6.66666 9.79172C6.66666 9.21642 7.13303 8.75005 7.70833 8.75005Z" fill="#333333"/>
</svg>
