<svg width="13" height="13" viewBox="0 0 13 13" fill="none" xmlns="http://www.w3.org/2000/svg">
<path fill-rule="evenodd" clip-rule="evenodd" d="M5.31014 2.97934C5.40138 1.76395 6.17916 0.977435 7.1549 1.09392C8.11474 1.20851 8.79618 2.1515 8.79618 3.42709L8.79553 3.56293L8.79358 3.69865L8.78671 3.93622L9.91624 3.93647C11.0866 3.93647 12.0029 4.91249 11.9105 6.04262L11.9043 6.10556L11.896 6.16878L11.339 9.942C11.2002 10.8857 10.3879 11.5864 9.42486 11.6178L9.35744 11.6189H3.26243C2.62475 11.6189 2.08437 11.1548 2.00148 10.5341L1.99506 10.4755L1.62961 6.23295C1.5683 5.51876 2.12673 4.91107 2.84034 4.88038L2.89699 4.87916L4.18768 4.87899L4.23849 4.8629L4.29513 4.84158C4.42847 4.78804 4.56364 4.7077 4.69052 4.59558C5.02379 4.30107 5.24721 3.84195 5.29937 3.15008L5.31014 2.97934ZM4.18627 5.96239L2.89699 5.96249C2.79243 5.96249 2.71496 6.03486 2.70883 6.11741L2.70896 6.14013L3.07442 10.3828C3.08077 10.457 3.14531 10.5214 3.23256 10.5335L3.26243 10.5356L4.18627 10.5354V5.96239ZM7.02648 2.16962C6.72157 2.13321 6.4419 2.41196 6.39182 3.04087L6.38052 3.21916C6.30882 4.19592 5.9576 4.92159 5.40788 5.40737C5.36249 5.44748 5.31642 5.48534 5.26978 5.52103L5.2696 10.5354L9.35744 10.5356C9.80159 10.5356 10.1757 10.2353 10.2589 9.83118L10.2672 9.7841L10.8243 6.01065C10.8984 5.50795 10.5039 5.04935 9.96848 5.02118L9.91624 5.01981H8.21538C7.90084 5.01981 7.65244 4.7528 7.67512 4.43909C7.69988 4.09658 7.71284 3.76247 7.71284 3.42709C7.71284 2.65974 7.39003 2.21302 7.02648 2.16962Z" fill="#999999"/>
</svg>
