<svg width="13" height="13" viewBox="0 0 13 13" fill="none" xmlns="http://www.w3.org/2000/svg">
<path d="M9.5429 2.58067C9.61912 2.43274 9.84049 2.47096 9.8627 2.63588L9.98213 3.52267C10.0094 3.72513 10.1435 3.89728 10.3331 3.9733L11.1369 4.29554C11.284 4.35452 11.2776 4.56498 11.1271 4.61489L9.99194 4.99142C9.8569 5.03621 9.74363 5.13014 9.67461 5.25455L9.21013 6.09184C9.13032 6.2357 8.9131 6.19376 8.89259 6.03052L8.77593 5.10202C8.75261 4.91641 8.63924 4.75424 8.47293 4.6686L7.70363 4.27244C7.56186 4.19944 7.58944 3.98902 7.74524 3.95501L8.71195 3.74402C8.87715 3.70797 9.01764 3.60007 9.09509 3.44976L9.5429 2.58067Z" fill="#E62828"/>
<path fill-rule="evenodd" clip-rule="evenodd" d="M5.60809 2.3133C5.89696 2.39052 6.06892 2.68746 5.99188 2.97639L5.737 3.92951H6.63153C6.9306 3.92951 7.17339 4.17246 7.17352 4.4715C7.17352 4.77066 6.93069 5.0135 6.63153 5.0135H5.44794L4.65302 7.99299H7.86688L8.14911 6.93928C8.22667 6.65051 8.52432 6.47907 8.81317 6.55646C9.10176 6.63415 9.27336 6.93177 9.19598 7.22053L8.98895 7.99299H9.34442C9.64324 7.99338 9.88544 8.23607 9.88544 8.53498C9.88504 8.83355 9.64299 9.0756 9.34442 9.076H8.69891L8.36981 10.3035C8.29227 10.5922 7.99448 10.7645 7.70575 10.6873C7.41708 10.6098 7.24577 10.312 7.32294 10.0233L7.57684 9.076H4.36395L4.03583 10.3035C3.95842 10.5921 3.66151 10.7643 3.37274 10.6873C3.08414 10.6101 2.91234 10.3129 2.98895 10.0242L3.24188 9.076H2.30243C2.00352 9.076 1.76083 8.8338 1.76044 8.53498C1.76044 8.23583 2.00327 7.99299 2.30243 7.99299H3.53094L4.32684 5.0135H3.65594C3.3569 5.01336 3.11395 4.77058 3.11395 4.4715C3.11408 4.17254 3.35698 3.92964 3.65594 3.92951H4.61591L4.94501 2.69709C5.02214 2.40815 5.31915 2.23633 5.60809 2.3133Z" fill="#999999"/>
</svg>
