<svg width="18" height="18" viewBox="0 0 18 18" fill="none" xmlns="http://www.w3.org/2000/svg">
<path fill-rule="evenodd" clip-rule="evenodd" d="M9 1.875C12.935 1.875 16.125 5.06497 16.125 9C16.125 12.935 12.935 16.125 9 16.125C5.06497 16.125 1.875 12.935 1.875 9C1.875 5.06497 5.06497 1.875 9 1.875ZM11.5967 5.56522C11.3716 5.50513 11.1407 5.62679 11.06 5.84009L11.0459 5.88394L10.7719 6.90851H8.10375L8.3154 6.11606L8.32503 6.071C8.36128 5.84582 8.2218 5.62531 7.99668 5.56522C7.77157 5.50513 7.54075 5.62679 7.45996 5.84009L7.44585 5.88394L7.17188 6.90851L6.375 6.9086L6.32899 6.91092C6.10208 6.93396 5.925 7.1256 5.925 7.3586C5.925 7.59159 6.10208 7.78323 6.32899 7.80627L6.375 7.8086L6.93188 7.80851L6.27113 10.2835L5.25 10.2836L5.20399 10.2859C4.97708 10.309 4.8 10.5006 4.8 10.7336C4.8 10.9666 4.97708 11.1582 5.20399 11.1813L5.25 11.1836L6.03075 11.1835L5.82106 11.9708L5.81144 12.0159C5.77518 12.2411 5.91467 12.4616 6.13978 12.5217C6.36489 12.5817 6.59572 12.4601 6.6765 12.2468L6.69061 12.2029L6.96263 11.1835H9.63075L9.42106 11.9708L9.41144 12.0159C9.37518 12.2411 9.51467 12.4616 9.73978 12.5217C9.96489 12.5817 10.1957 12.4601 10.2765 12.2468L10.2906 12.2029L10.5626 11.1835L11.1 11.1836L11.146 11.1813C11.3729 11.1582 11.55 10.9666 11.55 10.7336C11.55 10.5006 11.3729 10.309 11.146 10.2859L11.1 10.2836L10.8026 10.2835L11.4634 7.80851L12.225 7.8086L12.271 7.80627C12.4979 7.78323 12.675 7.59159 12.675 7.3586C12.675 7.1256 12.4979 6.93396 12.271 6.91092L12.225 6.9086L11.7038 6.90851L11.9154 6.11606L11.925 6.071C11.9613 5.84582 11.8218 5.62531 11.5967 5.56522ZM10.5319 7.80851L9.87112 10.2835H7.20262L7.86337 7.80851H10.5319Z" fill="#333333"/>
</svg>
