<svg width="13" height="13" viewBox="0 0 13 13" fill="none" xmlns="http://www.w3.org/2000/svg">
<path fill-rule="evenodd" clip-rule="evenodd" d="M7.8408 1.625C8.12636 1.625 8.36031 1.84597 8.38098 2.12624L8.38247 2.16667L8.3822 2.40879L10.3143 2.40887C10.6135 2.40887 10.856 2.65138 10.856 2.95054C10.856 3.2361 10.635 3.47004 10.3547 3.49072L10.3143 3.49221L8.3822 3.49212V3.94062L9.26108 3.94086C10.1219 3.94086 10.8234 4.62283 10.8549 5.47597L10.856 5.53577L10.8557 10.2445L11.0886 10.2446C11.3742 10.2446 11.6081 10.4655 11.6288 10.7458L11.6303 10.7862C11.6303 11.0718 11.4093 11.3058 11.129 11.3264L11.0886 11.3279L10.4427 11.3283C10.4152 11.335 10.387 11.3396 10.3581 11.3419L10.3143 11.3436H5.31143C5.26721 11.3436 5.22423 11.3383 5.18309 11.3283L3.37672 11.3279C3.09117 11.3279 2.85722 11.1069 2.83654 10.8267L2.83506 10.7862L2.8349 4.29027L2.30708 4.99871C2.13727 5.22659 1.8225 5.2827 1.58578 5.13448L1.54909 5.10937C1.32121 4.93955 1.2651 4.62478 1.41332 4.38807L1.43842 4.35137L2.94239 2.33319C3.24552 1.92642 3.88273 2.12403 3.91695 2.61525L3.91839 2.65686L3.91823 10.2445L4.76955 10.2443L4.76976 5.53577C4.76976 4.67494 5.45174 3.9734 6.30488 3.94196L6.36467 3.94086L7.29887 3.94062V3.49212L5.31143 3.49221C5.01227 3.49221 4.76976 3.24969 4.76976 2.95054C4.76976 2.66498 4.99073 2.43104 5.271 2.41036L5.31143 2.40887L7.29887 2.40879L7.29914 2.16667C7.29914 1.86751 7.54165 1.625 7.8408 1.625ZM9.26108 5.02419H6.36467C6.09559 5.02419 5.875 5.23194 5.8546 5.49579L5.85306 5.53577L5.85289 10.2443L9.77239 10.2445L9.77265 5.53577C9.77265 5.28085 9.5862 5.06948 9.34223 5.03059L9.30106 5.02573L9.26108 5.02419ZM8.69667 6.04734C9.12374 6.04737 9.3775 6.51524 9.15962 6.87035L9.13705 6.90434L8.02975 8.45027L8.69663 8.45044C8.98219 8.45044 9.21614 8.67141 9.23682 8.95168L9.2383 8.99211C9.2383 9.27766 9.01733 9.51161 8.73706 9.53229L8.69663 9.53377H6.97602C6.54894 9.53377 6.29514 9.06589 6.51303 8.71076L6.5356 8.67677L7.64273 7.1305L6.89133 7.13056C6.60578 7.13054 6.37184 6.90955 6.35118 6.62928L6.3497 6.58885C6.3497 6.3033 6.5707 6.06937 6.85098 6.04871L6.8914 6.04722L8.69667 6.04734Z" fill="#999999"/>
</svg>
